{
    "asset" : {
        "generator" : "Khronos glTF Blender I/O v1.6.16",
        "version" : "2.0"
    },
    "extensionsUsed" : [
        "KHR_texture_transform"
    ],
    "extensionsRequired" : [
        "KHR_texture_transform"
    ],
    "scene" : 0,
    "scenes" : [
        {
            "name" : "Scene",
            "nodes" : [
                0
            ]
        }
    ],
    "nodes" : [
        {
            "mesh" : 0,
            "name" : "main walls",
            "translation" : [
                -0.004574775695800781,
                0.7234058380126953,
                -14.000384330749512
            ]
        }
    ],
    "materials" : [
        {
            "doubleSided" : true,
            "name" : "main",
            "pbrMetallicRoughness" : {
                "baseColorTexture" : {
                    "extensions" : {
                        "KHR_texture_transform" : {
                            "offset" : [
                                -4.999999999999995,
                                1.00000021855695
                            ],
                            "rotation" : 1.5707963705062866,
                            "scale" : [
                                5,
                                5
                            ]
                        }
                    },
                    "index" : 0
                },
                "metallicFactor" : 0,
                "roughnessFactor" : 0.5
            }
        }
    ],
    "meshes" : [
        {
            "name" : "Cube.001",
            "primitives" : [
                {
                    "attributes" : {
                        "POSITION" : 0,
                        "NORMAL" : 1,
                        "TEXCOORD_0" : 2
                    },
                    "indices" : 3,
                    "material" : 0
                }
            ]
        }
    ],
    "textures" : [
        {
            "sampler" : 0,
            "source" : 0
        }
    ],
    "images" : [
        {
            "bufferView" : 4,
            "mimeType" : "image/jpeg",
            "name" : "wall"
        }
    ],
    "accessors" : [
        {
            "bufferView" : 0,
            "componentType" : 5126,
            "count" : 5440,
            "max" : [
                25.5789737701416,
                5.583351135253906,
                15.000384330749512
            ],
            "min" : [
                -25.5789737701416,
                -2.083500385284424,
                -23.57897186279297
            ],
            "type" : "VEC3"
        },
        {
            "bufferView" : 1,
            "componentType" : 5126,
            "count" : 5440,
            "type" : "VEC3"
        },
        {
            "bufferView" : 2,
            "componentType" : 5126,
            "count" : 5440,
            "type" : "VEC2"
        },
        {
            "bufferView" : 3,
            "componentType" : 5123,
            "count" : 9906,
            "type" : "SCALAR"
        }
    ],
    "bufferViews" : [
        {
            "buffer" : 0,
            "byteLength" : 65280,
            "byteOffset" : 0
        },
        {
            "buffer" : 0,
            "byteLength" : 65280,
            "byteOffset" : 65280
        },
        {
            "buffer" : 0,
            "byteLength" : 43520,
            "byteOffset" : 130560
        },
        {
            "buffer" : 0,
            "byteLength" : 19812,
            "byteOffset" : 174080
        },
        {
            "buffer" : 0,
            "byteLength" : 1928011,
            "byteOffset" : 193892
        }
    ],
    "samplers" : [
        {
            "magFilter" : 9729,
            "minFilter" : 9987
        }
    ],
    "buffers" : [
        {
            "byteLength" : 2121904,
            "uri" : "data:application/octet-stream;base64,"
        }
    ]
}
