{
    "asset" : {
        "generator" : "Khronos glTF Blender I/O v1.4.40",
        "version" : "2.0"
    },
    "scene" : 0,
    "scenes" : [
        {
            "name" : "Scene",
            "nodes" : [
                0,
                3
            ]
        }
    ],
    "nodes" : [
        {
            "name" : "Light",
            "rotation" : [
                0.27744442224502563,
                0.21293321251869202,
                -0.27508893609046936,
                0.8955501914024353
            ],
            "scale" : [
                0.43048128485679626,
                0.43048131465911865,
                0.43048134446144104
            ],
            "translation" : [
                15.970544815063477,
                45.6802978515625,
                36.48031234741211
            ]
        },
        {
            "mesh" : 0,
            "name" : "MainBody",
            "translation" : [
                0,
                0,
                -3.814697265625e-06
            ]
        },
        {
            "mesh" : 1,
            "name" : "MainBody.001",
            "translation" : [
                0,
                0,
                -3.814697265625e-06
            ]
        },
        {
            "children" : [
                1,
                2
            ],
            "mesh" : 2,
            "name" : "Cube",
            "scale" : [
                0.4304812550544739,
                0.4304812550544739,
                0.4304812550544739
            ],
            "translation" : [
                1.1097297668457031,
                18.185699462890625,
                20.358234405517578
            ]
        }
    ],
    "materials" : [
        {
            "doubleSided" : true,
            "name" : "Pillars",
            "pbrMetallicRoughness" : {
                "metallicFactor" : 0,
                "roughnessFactor" : 0.2818182110786438
            }
        },
        {
            "doubleSided" : true,
            "name" : "Blocks",
            "pbrMetallicRoughness" : {
                "metallicFactor" : 0
            }
        },
        {
            "doubleSided" : true,
            "name" : "TopBlock",
            "pbrMetallicRoughness" : {
                "metallicFactor" : 0
            }
        },
        {
            "doubleSided" : true,
            "name" : "Main_Body",
            "pbrMetallicRoughness" : {
                "metallicFactor" : 0
            }
        },
        {
            "doubleSided" : true,
            "name" : "Main_Body.Archway",
            "pbrMetallicRoughness" : {
                "metallicFactor" : 0
            }
        }
    ],
    "meshes" : [
        {
            "name" : "Cube.002",
            "primitives" : [
                {
                    "attributes" : {
                        "POSITION" : 0,
                        "NORMAL" : 1,
                        "TEXCOORD_0" : 2
                    },
                    "indices" : 3,
                    "material" : 0
                },
                {
                    "attributes" : {
                        "POSITION" : 4,
                        "NORMAL" : 5,
                        "TEXCOORD_0" : 6
                    },
                    "indices" : 7,
                    "material" : 1
                }
            ]
        },
        {
            "name" : "Cube.001",
            "primitives" : [
                {
                    "attributes" : {
                        "POSITION" : 8,
                        "NORMAL" : 9,
                        "TEXCOORD_0" : 10
                    },
                    "indices" : 11,
                    "material" : 2
                }
            ]
        },
        {
            "name" : "Cube",
            "primitives" : [
                {
                    "attributes" : {
                        "POSITION" : 12,
                        "NORMAL" : 13,
                        "TEXCOORD_0" : 14
                    },
                    "indices" : 15,
                    "material" : 3
                },
                {
                    "attributes" : {
                        "POSITION" : 16,
                        "NORMAL" : 17,
                        "TEXCOORD_0" : 18
                    },
                    "indices" : 19,
                    "material" : 4
                }
            ]
        }
    ],
    "accessors" : [
        {
            "bufferView" : 0,
            "componentType" : 5126,
            "count" : 29760,
            "max" : [
                32.94548416137695,
                29.704605102539062,
                20.47002410888672
            ],
            "min" : [
                -32.94548416137695,
                -0.03496897593140602,
                -20.47002601623535
            ],
            "type" : "VEC3"
        },
        {
            "bufferView" : 1,
            "componentType" : 5126,
            "count" : 29760,
            "type" : "VEC3"
        },
        {
            "bufferView" : 2,
            "componentType" : 5126,
            "count" : 29760,
            "type" : "VEC2"
        },
        {
            "bufferView" : 3,
            "componentType" : 5123,
            "count" : 110496,
            "type" : "SCALAR"
        },
        {
            "bufferView" : 4,
            "componentType" : 5126,
            "count" : 17268,
            "max" : [
                34.0478515625,
                41.74483871459961,
                19.163536071777344
            ],
            "min" : [
                -34.066349029541016,
                16.22844123840332,
                -19.163532257080078
            ],
            "type" : "VEC3"
        },
        {
            "bufferView" : 5,
            "componentType" : 5126,
            "count" : 17268,
            "type" : "VEC3"
        },
        {
            "bufferView" : 6,
            "componentType" : 5126,
            "count" : 17268,
            "type" : "VEC2"
        },
        {
            "bufferView" : 7,
            "componentType" : 5123,
            "count" : 74976,
            "type" : "SCALAR"
        },
        {
            "bufferView" : 8,
            "componentType" : 5126,
            "count" : 2096,
            "max" : [
                -6.819890022277832,
                47.99360656738281,
                8.196836471557617
            ],
            "min" : [
                -34.00745391845703,
                44.26149368286133,
                -8.689303398132324
            ],
            "type" : "VEC3"
        },
        {
            "bufferView" : 9,
            "componentType" : 5126,
            "count" : 2096,
            "type" : "VEC3"
        },
        {
            "bufferView" : 10,
            "componentType" : 5126,
            "count" : 2096,
            "type" : "VEC2"
        },
        {
            "bufferView" : 11,
            "componentType" : 5123,
            "count" : 9984,
            "type" : "SCALAR"
        },
        {
            "bufferView" : 12,
            "componentType" : 5126,
            "count" : 2147,
            "max" : [
                31.784713745117188,
                44.45960235595703,
                10.923489570617676
            ],
            "min" : [
                -31.784713745117188,
                0.20338542759418488,
                -10.923489570617676
            ],
            "type" : "VEC3"
        },
        {
            "bufferView" : 13,
            "componentType" : 5126,
            "count" : 2147,
            "type" : "VEC3"
        },
        {
            "bufferView" : 14,
            "componentType" : 5126,
            "count" : 2147,
            "type" : "VEC2"
        },
        {
            "bufferView" : 15,
            "componentType" : 5123,
            "count" : 9168,
            "type" : "SCALAR"
        },
        {
            "bufferView" : 16,
            "componentType" : 5126,
            "count" : 21202,
            "max" : [
                26.17810821533203,
                26.728036880493164,
                11.419447898864746
            ],
            "min" : [
                -26.17810821533203,
                0.10201656818389893,
                -11.419447898864746
            ],
            "type" : "VEC3"
        },
        {
            "bufferView" : 17,
            "componentType" : 5126,
            "count" : 21202,
            "type" : "VEC3"
        },
        {
            "bufferView" : 18,
            "componentType" : 5126,
            "count" : 21202,
            "type" : "VEC2"
        },
        {
            "bufferView" : 19,
            "componentType" : 5123,
            "count" : 85764,
            "type" : "SCALAR"
        }
    ],
    "bufferViews" : [
        {
            "buffer" : 0,
            "byteLength" : 357120,
            "byteOffset" : 0
        },
        {
            "buffer" : 0,
            "byteLength" : 357120,
            "byteOffset" : 357120
        },
        {
            "buffer" : 0,
            "byteLength" : 238080,
            "byteOffset" : 714240
        },
        {
            "buffer" : 0,
            "byteLength" : 220992,
            "byteOffset" : 952320
        },
        {
            "buffer" : 0,
            "byteLength" : 207216,
            "byteOffset" : 1173312
        },
        {
            "buffer" : 0,
            "byteLength" : 207216,
            "byteOffset" : 1380528
        },
        {
            "buffer" : 0,
            "byteLength" : 138144,
            "byteOffset" : 1587744
        },
        {
            "buffer" : 0,
            "byteLength" : 149952,
            "byteOffset" : 1725888
        },
        {
            "buffer" : 0,
            "byteLength" : 25152,
            "byteOffset" : 1875840
        },
        {
            "buffer" : 0,
            "byteLength" : 25152,
            "byteOffset" : 1900992
        },
        {
            "buffer" : 0,
            "byteLength" : 16768,
            "byteOffset" : 1926144
        },
        {
            "buffer" : 0,
            "byteLength" : 19968,
            "byteOffset" : 1942912
        },
        {
            "buffer" : 0,
            "byteLength" : 25764,
            "byteOffset" : 1962880
        },
        {
            "buffer" : 0,
            "byteLength" : 25764,
            "byteOffset" : 1988644
        },
        {
            "buffer" : 0,
            "byteLength" : 17176,
            "byteOffset" : 2014408
        },
        {
            "buffer" : 0,
            "byteLength" : 18336,
            "byteOffset" : 2031584
        },
        {
            "buffer" : 0,
            "byteLength" : 254424,
            "byteOffset" : 2049920
        },
        {
            "buffer" : 0,
            "byteLength" : 254424,
            "byteOffset" : 2304344
        },
        {
            "buffer" : 0,
            "byteLength" : 169616,
            "byteOffset" : 2558768
        },
        {
            "buffer" : 0,
            "byteLength" : 171528,
            "byteOffset" : 2728384
        }
    ],
    "buffers" : [
        {
            "byteLength" : 2899912,
            "uri" : "data:application/octet-stream;base64,"
        }
    ]
}
